<?xml version="1.0" encoding="UTF-8"?>
<!-- Generated by Pixelmator Pro 3.0.1 -->
<svg width="151" height="151" viewBox="0 0 151 151" xmlns="http://www.w3.org/2000/svg" xmlns:xlink="http://www.w3.org/1999/xlink">
    <g id="x00201">
        <path id="Path" fill="#963d3a" fill-rule="evenodd" stroke="none" d="M 38.777954 30.773232 L 112.365356 30.773232 C 115.918114 30.773232 118.79055 33.645668 118.79055 37.122833 L 118.79055 104.285034 C 118.79055 107.800003 115.880318 110.634644 112.365356 110.634644 L 38.777954 110.634644 C 35.225197 110.634644 32.352757 107.762207 32.352757 104.285034 L 32.352757 37.122833 C 32.352757 33.607872 35.262993 30.773232 38.777954 30.773232 Z"/>
        <g id="Group">
            <path id="path1" fill="#fefefe" stroke="none" d="M 109.795273 34.250397 L 41.310238 34.250397 L 41.310238 32.851967 L 109.795273 32.851967 L 109.795273 32.851967 L 109.795273 34.250397 Z M 116.485039 39.466141 L 115.086617 39.466141 L 115.086617 39.466141 L 115.086617 39.201576 L 115.04882 38.937004 L 115.011024 38.67244 L 114.973228 38.407875 L 114.897636 38.143311 L 114.822044 37.878738 L 114.74646 37.65197 L 114.633072 37.425194 L 114.519684 37.198425 L 114.406296 36.971657 L 114.292915 36.744881 L 114.141731 36.518112 L 113.990555 36.329132 L 113.839371 36.14016 L 113.688187 35.95118 L 113.499214 35.762207 L 113.310234 35.573227 L 113.121262 35.42205 L 112.932281 35.270866 L 112.705513 35.119682 L 112.478737 34.968506 L 112.251968 34.855118 L 112.0252 34.74173 L 111.798424 34.628349 L 111.571655 34.552757 L 111.344879 34.477165 L 111.080315 34.401573 L 110.81575 34.325981 L 110.551178 34.288193 L 110.286613 34.250397 L 110.022049 34.212601 L 109.757477 34.212601 L 109.757477 32.814171 L 110.097641 32.814171 L 110.437798 32.851967 L 110.777954 32.889763 L 111.118111 32.965355 L 111.458267 33.040947 L 111.760628 33.116539 L 112.062996 33.229919 L 112.365356 33.343307 L 112.667717 33.494492 L 112.970078 33.645668 L 113.234642 33.796852 L 113.499214 33.985825 L 113.763779 34.174805 L 114.028343 34.363777 L 114.255119 34.590553 L 114.481888 34.817322 L 114.708664 35.044098 L 114.935432 35.270866 L 115.124413 35.535431 L 115.313385 35.800003 L 115.502365 36.064568 L 115.653542 36.329132 L 115.804726 36.631493 L 115.955902 36.933861 L 116.06929 37.236221 L 116.182678 37.538582 L 116.25827 37.840942 L 116.333855 38.143311 L 116.409447 38.483467 L 116.447243 38.823624 L 116.485039 39.16378 L 116.485039 39.503937 L 116.485039 39.503937 Z M 115.086617 101.941727 L 115.086617 39.466141 L 116.485039 39.466141 L 116.485039 101.941727 L 116.485039 101.941727 L 115.086617 101.941727 Z M 109.795273 108.555908 L 109.795273 107.157486 L 109.795273 107.157486 L 110.059845 107.157486 L 110.324409 107.11969 L 110.588974 107.081894 L 110.853546 107.044098 L 111.118111 106.968506 L 111.382675 106.892914 L 111.609451 106.817322 L 111.83622 106.74173 L 112.062996 106.628342 L 112.289764 106.514961 L 112.516533 106.401573 L 112.743309 106.250397 L 112.970078 106.099213 L 113.159058 105.948029 L 113.34803 105.796852 L 113.53701 105.60788 L 113.725983 105.4189 L 113.877167 105.229919 L 114.028343 105.040939 L 114.179527 104.851967 L 114.330711 104.625198 L 114.444092 104.398422 L 114.55748 104.171654 L 114.670868 103.944885 L 114.784248 103.718109 L 114.85984 103.491333 L 114.935432 103.226776 L 115.011024 102.962204 L 115.04882 102.697639 L 115.086617 102.433075 L 115.124413 102.168503 L 115.124413 101.903938 L 116.522835 101.903938 L 116.522835 102.244095 L 116.485039 102.584251 L 116.447243 102.924408 L 116.371651 103.264572 L 116.296066 103.566925 L 116.220474 103.869293 L 116.107086 104.171654 L 115.993698 104.474014 L 115.842522 104.776382 L 115.691338 105.078735 L 115.540161 105.343307 L 115.351181 105.60788 L 115.162201 105.872437 L 114.973228 106.137009 L 114.74646 106.363785 L 114.519684 106.590546 L 114.292915 106.817322 L 114.066139 107.044098 L 113.801575 107.23307 L 113.53701 107.422043 L 113.272438 107.611023 L 113.007874 107.762207 L 112.705513 107.913391 L 112.403152 108.064568 L 112.100784 108.177948 L 111.798424 108.291336 L 111.496063 108.366928 L 111.155907 108.44252 L 110.81575 108.518112 L 110.475594 108.555908 L 110.135429 108.593704 L 109.795273 108.593704 L 109.795273 108.593704 Z M 41.310238 107.157486 L 109.795273 107.157486 L 109.795273 108.555908 L 41.310238 108.555908 L 41.310238 108.555908 L 41.310238 107.157486 Z M 34.620472 101.941727 L 36.018898 101.941727 L 36.018898 101.941727 L 36.018898 102.206299 L 36.056694 102.470871 L 36.09449 102.735428 L 36.132282 103 L 36.207874 103.264572 L 36.283466 103.529129 L 36.359055 103.755905 L 36.472443 103.982681 L 36.585827 104.20945 L 36.699211 104.436218 L 36.812599 104.662994 L 36.963779 104.889763 L 37.11496 105.078735 L 37.26614 105.267715 L 37.417324 105.456696 L 37.6063 105.645668 L 37.795277 105.834641 L 37.984253 105.985825 L 38.173229 106.137009 L 38.362206 106.288193 L 38.588978 106.439369 L 38.815746 106.552757 L 39.042519 106.666138 L 39.269291 106.779526 L 39.496063 106.855118 L 39.722836 106.93071 L 39.9874 107.006302 L 40.251968 107.081894 L 40.516537 107.11969 L 40.781101 107.157486 L 41.04567 107.195274 L 41.310238 107.195274 L 41.310238 108.593704 L 40.970078 108.593704 L 40.629921 108.555908 L 40.289764 108.518112 L 39.949608 108.44252 L 39.609447 108.366928 L 39.307087 108.291336 L 39.004723 108.177948 L 38.702362 108.064568 L 38.400002 107.913391 L 38.097637 107.762207 L 37.833073 107.611023 L 37.568504 107.422043 L 37.303936 107.23307 L 37.039371 107.044098 L 36.812599 106.817322 L 36.585827 106.590546 L 36.359055 106.363785 L 36.132282 106.137009 L 35.943306 105.872437 L 35.75433 105.60788 L 35.565353 105.343307 L 35.414173 105.078735 L 35.262993 104.776382 L 35.111813 104.474014 L 34.998425 104.171654 L 34.88504 103.869293 L 34.809448 103.566925 L 34.73386 103.264572 L 34.658268 102.924408 L 34.620472 102.584251 L 34.582676 102.244095 L 34.582676 101.903938 L 34.582676 101.903938 Z M 36.018898 39.466141 L 36.018898 101.941727 L 34.620472 101.941727 L 34.620472 39.466141 L 34.620472 39.466141 L 36.018898 39.466141 Z M 41.310238 32.851967 L 41.310238 34.250397 L 41.310238 34.250397 L 41.04567 34.250397 L 40.781101 34.288193 L 40.516537 34.325981 L 40.251968 34.363777 L 39.9874 34.439369 L 39.722836 34.514961 L 39.496063 34.590553 L 39.269291 34.666145 L 39.042519 34.779526 L 38.815746 34.892914 L 38.588978 35.006302 L 38.362206 35.157478 L 38.173229 35.308662 L 37.984253 35.459839 L 37.795277 35.611023 L 37.6063 35.800003 L 37.417324 35.988976 L 37.26614 36.177956 L 37.11496 36.366928 L 36.963779 36.555908 L 36.812599 36.782677 L 36.699211 37.009445 L 36.585827 37.236221 L 36.472443 37.46299 L 36.359055 37.689766 L 36.283466 37.916534 L 36.207874 38.181099 L 36.132282 38.445671 L 36.09449 38.710236 L 36.056694 38.9748 L 36.018898 39.239372 L 36.018898 39.503937 L 34.620472 39.503937 L 34.620472 39.16378 L 34.658268 38.823624 L 34.696064 38.483467 L 34.771652 38.143311 L 34.847244 37.840942 L 34.922836 37.538582 L 35.036221 37.236221 L 35.149605 36.933861 L 35.300789 36.631493 L 35.451969 36.329132 L 35.603149 36.064568 L 35.792126 35.800003 L 35.981102 35.535431 L 36.170078 35.270866 L 36.396851 35.044098 L 36.623623 34.817322 L 36.850395 34.590553 L 37.077164 34.363777 L 37.341732 34.174805 L 37.6063 33.985825 L 37.870865 33.796852 L 38.135433 33.645668 L 38.437794 33.494492 L 38.740158 33.343307 L 39.042519 33.229919 L 39.344883 33.116539 L 39.647243 33.040947 L 39.9874 32.965355 L 40.32756 32.889763 L 40.667717 32.851967 L 41.007874 32.814171 L 41.34803 32.814171 L 41.34803 32.814171 Z"/>
        </g>
        <path id="path2" fill="#fefefe" fill-rule="evenodd" stroke="none" d="M 54.65197 96.877167 C 53.29134 95.289764 52.95118 93.513382 53.896065 92.11496 C 54.31181 92.11496 54.765354 92.11496 55.218899 92.11496 C 56.466141 93.777954 55.521259 94.420471 55.521259 96.763779 C 55.218899 96.763779 54.916534 96.801575 54.65197 96.877167 Z M 57.977951 96.083466 C 57.37323 93.097641 57.37323 93.097641 57.411022 92.190552 C 60.434647 91.359055 62.777954 90.79213 66.255119 90.79213 C 68.522835 91.548035 70.79055 92.30394 73.133858 93.097641 C 73.133858 93.211029 73.133858 93.286613 73.133858 93.400002 C 67.880318 93.702362 62.702362 95.705513 57.977951 96.083466 Z M 95.584251 94.874016 C 95.584251 94.269287 95.584251 93.664566 95.584251 93.059845 C 95.433067 93.022049 95.281891 92.946457 95.168503 92.908661 C 95.168503 90.754333 95.433067 90.149605 97.587402 90.376373 C 97.625198 91.283463 97.70079 92.190552 97.738586 93.059845 C 97.587402 93.059845 97.474014 93.059845 97.398422 93.059845 C 97.20945 93.475586 97.058266 93.891342 96.907089 94.344879 C 96.718109 94.344879 96.566933 94.344879 96.415749 94.344879 C 96.415749 94.458267 96.415749 94.533859 96.415749 94.685043 C 96.113388 94.722839 95.848816 94.798424 95.622047 94.83622 Z M 91.199997 94.080315 C 90.74646 93.777954 89.801575 93.62677 89.688187 93.475586 C 84.850395 92.644096 79.937004 92.077164 75.477165 90.79213 C 74.456696 90.754333 73.436218 90.678741 72.491341 90.678741 C 68.25827 89.69606 64.667717 88.675591 60.850395 88.524414 C 59.829922 88.108658 58.88504 87.730713 57.902363 87.390549 C 57.448818 80.851967 59.792126 82.892914 64.516533 84.480316 C 67.011024 84.329132 69.354332 85.311813 72.037796 86.294487 C 82.922836 87.655121 82.922836 87.655121 85.681892 88.146454 C 88.100784 88.788971 91.04882 89.658264 94.034645 90.111816 C 93.5811 91.510239 92.976379 91.963776 93.165352 93.62677 C 93.014175 93.62677 92.862991 93.62677 92.711807 93.62677 C 92.674019 93.777954 92.674019 93.929138 92.674019 94.118111 C 91.57795 93.966934 91.57795 93.966934 91.162201 94.118111 Z M 89.007874 88.222046 C 85.833069 86.86142 82.431496 86.634644 79.445671 85.916534 C 79.445671 85.803146 79.445671 85.727562 79.445671 85.614174 C 90.633072 82.779526 90.633072 82.779526 91.540161 82.703934 C 91.57795 83.459839 91.955902 84.669289 92.107086 87.239365 C 89.839371 87.957481 89.310234 87.957481 89.007874 88.18425 Z M 74.834648 83.573227 C 69.883461 76.618896 68.900787 70.874016 69.46772 62.748032 C 70.223625 58.552757 72.302361 55.604721 74.872444 52.543304 C 75.363777 49.179527 74.834648 47.214172 73.625198 44.6063 C 81.259842 46.004723 82.053543 51.938583 81.826775 59.081886 C 81.637794 59.913383 81.411026 60.366928 81.562202 61.576378 C 81.411026 61.576378 81.259842 61.576378 81.108658 61.576378 C 80.806297 62.937004 80.806297 62.937004 80.919685 63.579529 C 80.730705 63.579529 80.579529 63.617325 80.428345 63.692917 C 80.428345 64.448822 78.65197 67.132286 78.160629 68.001572 C 77.404724 69.891342 76.648819 71.781105 75.93071 73.708664 C 75.74173 75.25827 75.590553 76.845673 75.439369 78.470863 C 75.288193 78.584251 75.288193 78.584251 75.174805 83.611023 C 75.061417 83.611023 74.985825 83.611023 74.872444 83.611023 Z M 69.27874 83.23307 C 62.588978 81.494492 59.376377 76.883461 59.376377 70.685036 C 60.737007 66.376381 60.774803 63.806297 60.170078 59.573227 C 61.228348 59.573227 62.853542 62.823624 63.420471 64.033073 C 64.365356 70.344879 64.176376 77.223625 69.656693 82.628349 C 69.656693 82.779526 69.656693 82.93071 69.656693 83.119682 C 69.505508 83.119682 69.392128 83.157478 69.316536 83.23307 Z M 79.710236 82.250397 C 79.521263 82.212601 79.370079 82.137009 79.218895 82.099213 C 80.844093 79 80.844093 79 85.530708 71.062996 C 87.080315 66.867714 88.365356 63.012596 88.781105 58.817322 C 88.478737 57.305511 88.176376 55.869293 87.911812 54.433067 C 89.272438 54.433067 91.615746 56.096062 92.522835 57.796852 C 93.392128 61.387398 92.976379 65.204727 92.976379 69.135429 C 92.522835 70.269295 91.04882 72.499214 91.351181 73.784248 C 91.199997 73.74646 91.04882 73.670868 90.935432 73.670868 C 90.595276 74.275589 90.595276 74.275589 90.519684 75.107086 C 90.368507 75.06929 90.217323 74.993698 90.066139 74.993698 C 87.874016 78.886612 83.90551 81.381104 79.710236 82.250397 Z"/>
    </g>
</svg>
