<?xml version="1.0" encoding="UTF-8"?>
<!-- Generated by Pixelmator Pro 3.0.1 -->
<svg width="113" height="113" viewBox="0 0 113 113" xmlns="http://www.w3.org/2000/svg" xmlns:xlink="http://www.w3.org/1999/xlink">
    <g id="x00201">
        <path id="Path" fill="#fefefe" fill-rule="evenodd" stroke="#332c2b" stroke-width="3.779528" stroke-linecap="round" stroke-linejoin="round" d="M 106.431496 56.155907 C 106.431496 67.823761 101.740707 79.013733 93.391052 87.264145 C 85.041412 95.514572 73.71685 100.149605 61.908661 100.149605 C 50.100471 100.149605 38.775913 95.514572 30.426262 87.264145 C 22.076612 79.013733 17.385826 67.823761 17.385826 56.155907 C 17.385826 44.488052 22.076612 33.29808 30.426262 25.047661 C 38.775913 16.797241 50.100471 12.162201 61.908661 12.162201 C 73.71685 12.162201 85.041412 16.797241 93.391052 25.047661 C 101.740707 33.29808 106.431496 44.488052 106.431496 56.155907 Z"/>
        <path id="path1" fill="#332c2b" fill-rule="evenodd" stroke="#332c2b" stroke-width="0.004913" stroke-linecap="round" stroke-linejoin="round" d="M 67.502365 57.062992 L 59.376377 65.113388 L 59.376377 72.294487 L 64.932281 67.645668 L 64.932281 80.722839 L 69.845673 80.722839 L 69.845673 67.645668 L 74.985825 72.483459 L 74.985825 65.113388 Z"/>
        <path id="path2" fill="#332c2b" fill-rule="evenodd" stroke="#332c2b" stroke-width="0.004913" stroke-linecap="round" stroke-linejoin="round" d="M 67.464569 24.86142 L 59.187401 33.478737 L 58.960629 40.962204 L 65.310234 33.705513 L 65.310234 40.206299 L 46.072441 51.166927 C 42.897636 52.451969 41.234646 54.870865 41.04567 58.423622 L 40.970078 72.785828 C 41.537006 75.771652 44.938583 76.716537 46.903938 78.719681 L 63.269291 87.337006 L 63.193699 80.987396 L 50.305511 74.637794 C 48.340157 73.352753 46.601574 71.916534 46.412598 69.422043 L 46.525986 60.011024 C 46.110237 57.705513 47.433071 56.420471 49.51181 55.588978 L 69.392128 44.023621 L 69.392128 33.705513 L 74.948029 41.340157 L 74.948029 33.478737 L 67.426773 24.86142 Z"/>
        <g id="Group">
            <path id="path3" fill="#332c2b" stroke="none" d="M 29.896063 78.833069 L 78.274017 26.448822 L 79.332283 27.3937 L 30.95433 79.777954 Z"/>
        </g>
        <g id="g1">
            <path id="path4" fill="#332c2b" stroke="none" d="M 32.503937 81.100784 L 80.919685 28.716537 L 81.977951 29.661415 L 33.562206 82.04567 Z"/>
        </g>
        <g id="g2">
            <path id="path5" fill="#332c2b" stroke="none" d="M 35.489765 82.385826 L 83.867714 30.039368 L 84.925987 30.984253 L 36.548031 83.330711 Z"/>
        </g>
        <g id="g3">
            <path id="path6" fill="#332c2b" stroke="none" d="M 37.455116 85.333862 L 85.833069 32.949608 L 86.891342 33.894485 L 38.513386 86.27874 Z"/>
        </g>
        <g id="g4">
            <path id="path7" fill="#332c2b" stroke="none" d="M 40.403149 87.601578 L 88.818901 35.217323 L 89.877167 36.162201 L 41.461418 88.546455 Z"/>
        </g>
        <path id="path8" fill="#332c2b" fill-rule="evenodd" stroke="none" d="M 61.908661 15.374802 C 84.623619 15.374802 103.181099 33.705513 103.181099 56.155907 C 103.181099 78.6063 84.661415 96.937012 61.908661 96.937012 C 39.193699 96.937012 20.636221 78.6063 20.636221 56.155907 C 20.636221 33.705513 39.155907 15.374802 61.908661 15.374802 Z M 61.908661 23.765358 C 79.9748 23.765358 94.677162 38.316536 94.677162 56.155907 C 94.677162 73.995277 79.937004 88.546455 61.908661 88.546455 C 43.842518 88.546455 29.140158 73.995277 29.140158 56.155907 C 29.140158 38.316536 43.880314 23.765358 61.908661 23.765358 Z"/>
    </g>
</svg>
