<?xml version="1.0" encoding="UTF-8"?>
<!-- Generated by Pixelmator Pro 3.0.1 -->
<svg width="113" height="113" viewBox="0 0 113 113" xmlns="http://www.w3.org/2000/svg" xmlns:xlink="http://www.w3.org/1999/xlink">
    <g id="x00201">
        <path id="Path" fill="#fefefe" fill-rule="evenodd" stroke="#e62129" stroke-width="3.779528" stroke-linecap="round" stroke-linejoin="round" d="M 103.748032 54.417324 C 103.748032 66.085175 99.057243 77.275146 90.707588 85.525566 C 82.357948 93.775986 71.033386 98.411026 59.225197 98.411026 C 47.417007 98.411026 36.092449 93.775986 27.742798 85.525566 C 19.393147 77.275146 14.702362 66.085175 14.702362 54.417324 C 14.702362 42.749466 19.393147 31.559494 27.742798 23.309082 C 36.092449 15.058662 47.417007 10.423622 59.225197 10.423622 C 71.033386 10.423622 82.357948 15.058662 90.707588 23.309082 C 99.057243 31.559494 103.748032 42.749466 103.748032 54.417324 Z"/>
        <path id="path1" fill="#e62129" fill-rule="evenodd" stroke="#e62129" stroke-width="0.288" stroke-linecap="round" stroke-linejoin="round" d="M 31.974804 29.699211 L 37.795277 30.492912 L 86.475594 74.940155 L 86.475594 79.135437 L 82.242523 79.135437 L 33.562206 34.423622 Z"/>
        <path id="path2" fill="#e62129" fill-rule="evenodd" stroke="#e62129" stroke-width="0.288" stroke-linecap="round" stroke-linejoin="round" d="M 59.225197 13.636223 C 81.940155 13.636223 100.497635 31.966927 100.497635 54.417324 C 100.497635 76.867722 81.977951 95.198425 59.225197 95.198425 C 36.510235 95.198425 17.952755 76.867722 17.952755 54.417324 C 17.952755 31.966927 36.472443 13.636223 59.225197 13.636223 Z M 59.225197 22.026772 C 77.291336 22.026772 91.993698 36.57795 91.993698 54.417324 C 91.993698 72.256699 77.25354 86.807877 59.225197 86.807877 C 41.159054 86.807877 26.456694 72.256699 26.456694 54.417324 C 26.456694 36.57795 41.19685 22.026772 59.225197 22.026772 Z"/>
        <path id="path3" fill="#332c2b" fill-rule="evenodd" stroke="none" d="M 50.87244 42.587402 L 60.963779 42.587402 L 60.963779 50.788975 L 50.87244 50.788975 Z"/>
        <path id="path4" fill="#332c2b" fill-rule="evenodd" stroke="none" d="M 73.398422 42.587402 L 83.489761 42.587402 L 83.489761 50.788975 L 73.398422 50.788975 Z"/>
        <path id="path5" fill="#332c2b" fill-rule="evenodd" stroke="none" d="M 62.059841 42.587402 L 72.151184 42.587402 L 72.151184 50.788975 L 62.059841 50.788975 Z"/>
        <path id="path6" fill="#332c2b" fill-rule="evenodd" stroke="none" d="M 43.04882 62.203148 C 44.522835 62.203148 45.694489 63.374802 45.694489 64.81102 C 45.694489 66.247246 44.485039 67.4189 43.04882 67.4189 C 41.574802 67.4189 40.403149 66.247246 40.403149 64.81102 C 40.403149 63.374802 41.612598 62.203148 43.04882 62.203148 Z M 43.04882 60.426773 C 45.505512 60.426773 47.508663 62.392124 47.508663 64.848816 C 47.508663 67.267715 45.505512 69.270866 43.04882 69.270866 C 40.592125 69.270866 38.588978 67.305511 38.588978 64.848816 C 38.588978 62.42992 40.592125 60.426773 43.04882 60.426773 Z"/>
        <path id="path7" fill="#332c2b" fill-rule="evenodd" stroke="none" d="M 70.261414 60.426773 C 72.718109 60.426773 74.72126 62.392124 74.72126 64.848816 C 74.72126 67.267715 72.718109 69.270866 70.261414 69.270866 C 67.804726 69.270866 65.801575 67.305511 65.801575 64.848816 C 65.801575 62.42992 67.804726 60.426773 70.261414 60.426773 Z M 70.261414 61.825195 C 71.962204 61.825195 73.322838 63.185825 73.322838 64.848816 C 73.322838 66.51181 71.962204 67.872437 70.261414 67.872437 C 68.560631 67.872437 67.199997 66.51181 67.199997 64.848816 C 67.199997 63.185825 68.560631 61.825195 70.261414 61.825195 Z"/>
        <path id="path8" fill="#332c2b" fill-rule="evenodd" stroke="none" d="M 84.510239 51.88504 L 50.154331 51.88504 L 50.229919 39.639374 L 41.650394 39.639374 L 37.417324 49.201576 L 33.940159 52.225197 L 36.396851 60.426773 L 33.940159 60.388977 L 33.940159 61.862991 L 36.850395 61.862991 C 41.725983 56.911812 45.5811 58.007874 48.907085 61.862991 L 64.176376 61.862991 C 66.330711 57.743305 72.982674 56.760632 76.081886 61.862991 L 84.510239 61.862991 L 84.510239 51.922836 Z M 48.302361 41.604721 L 42.519684 41.604721 L 40.025196 48.521263 L 48.302361 48.521263 L 48.302361 41.604721 Z"/>
    </g>
</svg>
