<?xml version="1.0" encoding="UTF-8"?>
<!-- Generated by Pixelmator Pro 2.3.8 -->
<svg width="113" height="151" viewBox="0 0 113 151" xmlns="http://www.w3.org/2000/svg" xmlns:xlink="http://www.w3.org/1999/xlink">
    <g id="x00201">
        <path id="Path" fill="#fefefe" fill-rule="evenodd" stroke="#2b378e" stroke-width="3.779528" stroke-linecap="round" stroke-linejoin="round" d="M 12.359056 36.291336 L 99.855118 36.291336 L 99.855118 121.519684 L 12.359056 121.519684 Z"/>
        <path id="path1" fill="#2b378e" fill-rule="evenodd" stroke="#006db8" stroke-width="1.511811" stroke-linecap="round" stroke-linejoin="round" d="M 14.929133 38.86142 L 97.285042 38.86142 L 97.285042 118.949608 L 14.929133 118.949608 Z"/>
        <path id="path2" fill="#fefefe" fill-rule="evenodd" stroke="#fefefe" stroke-width="0.288" stroke-linecap="round" stroke-linejoin="round" d="M 22.185827 107.308662 L 55.559055 50.388977 L 90.028343 107.422043 Z"/>
        <path id="path3" fill="#332c2b" fill-rule="evenodd" stroke="#332c2b" stroke-width="0.288" stroke-linecap="round" stroke-linejoin="round" d="M 58.620472 71.894485 C 58.620472 73.668755 57.165222 75.107086 55.370079 75.107086 C 53.574936 75.107086 52.119686 73.668755 52.119686 71.894485 C 52.119686 70.120216 53.574936 68.681892 55.370079 68.681892 C 57.165222 68.681892 58.620472 70.120216 58.620472 71.894485 Z"/>
        <path id="path4" fill="#332c2b" fill-rule="evenodd" stroke="#332c2b" stroke-width="0.288" stroke-linecap="round" stroke-linejoin="round" d="M 45.467716 84.782677 C 48.302361 83.23307 50.759056 80.965355 52.611023 77.79055 C 54.009449 75.06929 56.995277 75.711807 58.998425 77.412598 L 62.96693 83.573227 L 63.420471 87.806305 C 61.644096 89.847244 60.472443 89.469292 60.321259 83.42205 L 58.431496 81.948029 L 58.809448 94.647247 L 61.908661 100.429916 C 62.664566 102.470871 60.09449 103.869293 58.431496 100.959061 L 55.332283 94.609451 L 55.332283 90.603149 L 52.346458 94.080315 C 51.439369 95.176376 51.552757 96.839371 51.174805 98.199997 L 50.494488 101.110237 C 45.996849 105.683464 48.793701 94.344879 48.604725 93.664566 C 48.944881 91.92598 51.212597 90.262993 52.08189 89.015747 L 52.08189 84.177956 L 51.061417 84.215752 C 50.343307 84.25354 47.508663 86.634644 46.79055 86.67244 C 45.732285 86.710236 44.333858 85.500786 45.27874 84.896065 C 45.354332 84.858269 45.392124 84.820473 45.505512 84.782677 Z"/>
        <path id="path5" fill="#332c2b" fill-rule="evenodd" stroke="#332c2b" stroke-width="0.298334" stroke-linecap="round" stroke-linejoin="round" d="M 39.483212 94.149101 L 43.149353 94.149101 L 49.60532 106.092407 L 45.939178 106.092407 Z"/>
        <path id="path6" fill="#332c2b" fill-rule="evenodd" stroke="#332c2b" stroke-width="0.298334" stroke-linecap="round" stroke-linejoin="round" d="M 60.019276 94.149101 L 63.685417 94.149101 L 70.14138 106.092407 L 66.475243 106.092407 Z"/>
        <path id="path7" fill="#332c2b" fill-rule="evenodd" stroke="#332c2b" stroke-width="0.298334" stroke-linecap="round" stroke-linejoin="round" d="M 70.110992 94.149101 L 73.77713 94.149101 L 80.233101 106.092407 L 76.566956 106.092407 Z"/>
        <path id="path8" fill="#332c2b" fill-rule="evenodd" stroke="#332c2b" stroke-width="0.288" stroke-linecap="round" stroke-linejoin="round" d="M 33.940159 95.932281 L 39.68504 106.099213 L 36.018898 106.099213 L 31.861418 98.691338 Z"/>
        <path id="path9" fill="#332c2b" fill-rule="evenodd" stroke="#332c2b" stroke-width="0.288" stroke-linecap="round" stroke-linejoin="round" d="M 53.820473 94.269287 L 60.018898 106.099213 L 56.806301 106.137009 L 52.875591 98.729134 Z"/>
    </g>
</svg>
