<?xml version="1.0" encoding="UTF-8"?>
<!-- Generated by Pixelmator Pro 3.0.1 -->
<svg width="113" height="113" viewBox="0 0 113 113" xmlns="http://www.w3.org/2000/svg" xmlns:xlink="http://www.w3.org/1999/xlink">
    <g id="x00201">
        <path id="Path" fill="#f6ad02" fill-rule="evenodd" stroke="none" d="M 98.305511 93.270866 L 21.429922 93.270866 C 18.141733 92.666138 18.292913 89.415749 20.560631 85.447243 L 56.806301 22.064568 C 58.166927 19.948029 61.6063 18.549606 63.609447 22.064568 L 99.174805 84.086617 C 101.593704 87.903938 103.823624 93.346458 98.267715 93.270866 Z"/>
        <path id="path1" fill="#332c2b" fill-rule="evenodd" stroke="#332c2b" stroke-width="0.288" stroke-linecap="round" stroke-linejoin="round" d="M 98.305511 93.270866 L 21.429922 93.270866 C 18.141733 92.666138 18.292913 89.415749 20.560631 85.447243 L 56.806301 22.064568 C 58.166927 19.948029 61.6063 18.549606 63.609447 22.064568 L 99.174805 84.086617 C 101.593704 87.903938 103.823624 93.346458 98.267715 93.270866 Z M 60.24567 27.88504 L 94.450394 87.223618 L 26.040945 87.223618 L 60.24567 27.88504 Z"/>
        <path id="path2" fill="#332c2b" fill-rule="evenodd" stroke="#332c2b" stroke-width="0.288" stroke-linecap="round" stroke-linejoin="round" d="M 54.349606 50.448818 L 61.379528 50.448818 L 61.379528 81.289764 L 54.349606 81.289764 Z"/>
        <path id="path3" fill="#332c2b" fill-rule="evenodd" stroke="#332c2b" stroke-width="0.288" stroke-linecap="round" stroke-linejoin="round" d="M 55.411274 69.052788 L 55.411274 62.665386 L 74.04435 62.665386 L 74.04435 69.052788 Z"/>
    </g>
</svg>
