<?xml version="1.0" standalone="no"?><!DOCTYPE svg PUBLIC "-//W3C//DTD SVG 1.1//EN" "http://www.w3.org/Graphics/SVG/1.1/DTD/svg11.dtd"><svg t="1709264081187" class="icon" viewBox="0 0 1024 1024" version="1.1" xmlns="http://www.w3.org/2000/svg" p-id="4315" xmlns:xlink="http://www.w3.org/1999/xlink" width="128" height="128"><path d="M515.9936 163.7888c-1.28-2.1504-3.4304-2.1504-4.7104 0L99.4816 857.9072c-1.28 2.1504-0.256 3.9424 2.304 3.9424H922.624c2.5088 0 3.4304-1.792 2.2016-3.9424L515.9936 163.7888z" fill="#E6DB4E" p-id="4316"></path><path d="M922.624 903.424H77.6192L51.2 860.2112l12.5952-23.552L487.6288 122.2656l25.9584-1.5872a44.032 44.032 0 0 1 38.0416 21.9136L972.8 857.6l-23.7056 44.5952-26.4704 1.2288z m-752.64-83.1488h684.544L513.4848 241.3056 169.984 820.2752z" fill="#E6DB4E" p-id="4317"></path><path d="M922.624 891.8528H84.3264l-19.8144-31.4368 9.216-17.8688L494.2336 133.7856l19.4048-1.5872c11.5712 0 22.0672 6.0928 28.0576 16.2816l417.6896 709.2224-16.9472 33.024-19.8144 1.1264zM149.76 831.8464h724.9408L513.536 218.6752 149.76 831.8464z" p-id="4318"></path><path d="M677.7856 577.0752h-133.376V436.48H479.8464v140.5952H347.904v64.6144h131.9424v139.2128h64.5632v-139.2128h133.376z" p-id="4319"></path></svg>