<?xml version="1.0" standalone="no"?><!DOCTYPE svg PUBLIC "-//W3C//DTD SVG 1.1//EN" "http://www.w3.org/Graphics/SVG/1.1/DTD/svg11.dtd"><svg t="1709263527777" class="icon" viewBox="0 0 1024 1024" version="1.1" xmlns="http://www.w3.org/2000/svg" p-id="31326" data-spm-anchor-id="a313x.search_index.0.i9.5d103a81ZSyqGU" xmlns:xlink="http://www.w3.org/1999/xlink" width="128" height="128"><path d="M608.911682 483.145426H424.025948a14.043138 14.043138 0 0 0-14.029777 14.029777l14.029777 270.707882a14.069862 14.069862 0 0 0 14.029776 14.123309h156.158096a14.043138 14.043138 0 0 0 14.029777-14.029777l14.697861-270.894946a14.043138 14.043138 0 0 0-14.029776-13.936245zM446.179633 511.699362h140.297768v14.818117h-140.297768z m0 20.042538h140.297768v14.818117h-140.297768z m0 20.389942h140.297768v14.804755h-140.297768z m0 20.042539h140.297768v14.818116h-140.297768z m0 21.378707h140.297768v14.818117h-140.297768z m11.344077 177.710505a28.994872 28.994872 0 1 1 28.994872-28.994872 28.98151 28.98151 0 0 1-28.994872 29.034957z m115.966126 0a28.994872 28.994872 0 1 1 28.994872-28.994872 28.994872 28.994872 0 0 1-29.048319 29.034957z" fill="#8a8a8a" p-id="31327" data-spm-anchor-id="a313x.search_index.0.i7.5d103a81ZSyqGU" class="selected"></path><path d="M532.081952 18.880071C517.384091 3.286976 509.607586 0 505.705972 0c-3.500763 0-10.235056 2.672338-22.407558 15.593095-29.222021 30.932317-69.788118 98.876522-98.008012 152.096141C351.178002 232.079231 328.823891 285.606169 329.692401 300.878583l37.412738 660.067592a66.875269 66.875269 0 0 0 66.728291 63.053825h155.971032a66.808461 66.808461 0 0 0 66.714929-63.01374l37.773503-660.067591c1.777105-31.079296-102.644519-218.958049-162.210942-282.038598z m-40.485927 26.108746a19.307645 19.307645 0 0 1 30.731892 0.293958l43.171627 64.804206H447.489079z m114.616595 897.384606a17.490455 17.490455 0 0 1-17.490455 17.490455H435.263131a17.490455 17.490455 0 0 1-17.490455-17.490455v-37.492908a31.987891 31.987891 0 0 1 31.987891-31.987891h124.464162a31.987891 31.987891 0 0 1 31.987891 31.987891z m11.517779-185.567181a43.492308 43.492308 0 0 1-43.492308 43.492308H458.271965a43.478946 43.478946 0 0 1-43.50567-43.492308L393.040184 365.428918a72.473818 72.473818 0 0 1 72.500541-72.473818h101.46869a72.460456 72.460456 0 0 1 72.473818 72.473818z" fill="#1296db" p-id="31328" data-spm-anchor-id="a313x.search_index.0.i6.5d103a81ZSyqGU" class=""></path></svg>