<?xml version="1.0" standalone="no"?><!DOCTYPE svg PUBLIC "-//W3C//DTD SVG 1.1//EN" "http://www.w3.org/Graphics/SVG/1.1/DTD/svg11.dtd"><svg t="1709263461604" class="icon" viewBox="0 0 1024 1024" version="1.1" xmlns="http://www.w3.org/2000/svg" p-id="29299" xmlns:xlink="http://www.w3.org/1999/xlink" width="128" height="128"><path d="M436.007131 0C509.003703 0 573.369417 69.12 629.104274 207.286857a36.571429 36.571429 0 0 1 2.56 10.349714h0.219429v624.018286l-39.716572 181.394286h-295.497142L247.883703 841.654857V217.673143l0.146286-0.036572 0.073142-0.914285A36.571429 36.571429 0 0 1 250.077989 208.457143C300.839131 69.485714 362.791131 0 436.007131 0z" fill="#40A4E7" p-id="29300"></path><path d="M436.409417 36.278857c72.96 0 131.913143 70.144 176.822857 210.395429h-1.243428v591.36h-28.891429a36.571429 36.571429 0 0 1 19.931429 40.228571l-20.626286 101.010286a36.571429 36.571429 0 0 1-35.84 29.257143H340.043703a36.571429 36.571429 0 0 1-35.474286-27.684572l-25.380571-100.973714a36.571429 36.571429 0 0 1 19.638857-41.874286h-31.049143V246.710857h-1.097143C306.909989 106.422857 363.52256 36.278857 436.445989 36.278857z" fill="#40A4E7" p-id="29301"></path><path d="M287.600274 235.812571h304.566857v602.916572l-36.827428 170.349714H331.632274l-44.032-170.788571z" fill="#FFFFFF" p-id="29302"></path><path d="M436.592274 257.572571m18.285715 0l0 0q18.285714 0 18.285714 18.285715l0 529.371428q0 18.285714-18.285714 18.285715l0 0q-18.285714 0-18.285715-18.285715l0-529.371428q0-18.285714 18.285715-18.285715Z" fill="#C3C3C3" p-id="29303"></path><path d="M403.45856 257.572571m18.285714 0l0 0q18.285714 0 18.285715 18.285715l0 529.371428q0 18.285714-18.285715 18.285715l0 0q-18.285714 0-18.285714-18.285715l0-529.371428q0-18.285714 18.285714-18.285715Z" fill="#C3C3C3" p-id="29304"></path><path d="M370.361417 257.572571m18.285714 0l0 0q18.285714 0 18.285715 18.285715l0 529.371428q0 18.285714-18.285715 18.285715l0 0q-18.285714 0-18.285714-18.285715l0-529.371428q0-18.285714 18.285714-18.285715Z" fill="#C3C3C3" p-id="29305"></path><path d="M337.264274 286.610286m18.285715 0l0 0q18.285714 0 18.285714 18.285714l0 471.332571q0 18.285714-18.285714 18.285715l0 0q-18.285714 0-18.285715-18.285715l0-471.332571q0-18.285714 18.285715-18.285714Z" fill="#C3C3C3" p-id="29306"></path><path d="M469.689417 257.572571m18.285714 0l0 0q18.285714 0 18.285715 18.285715l0 529.371428q0 18.285714-18.285715 18.285715l0 0q-18.285714 0-18.285714-18.285715l0-529.371428q0-18.285714 18.285714-18.285715Z" fill="#C3C3C3" p-id="29307"></path><path d="M502.78656 257.572571m18.285714 0l0 0q18.285714 0 18.285715 18.285715l0 529.371428q0 18.285714-18.285715 18.285715l0 0q-18.285714 0-18.285714-18.285715l0-529.371428q0-18.285714 18.285714-18.285715Z" fill="#C3C3C3" p-id="29308"></path><path d="M347.211703 264.813714m18.285714 0l148.809143 0q18.285714 0 18.285714 18.285715l0 0q0 18.285714-18.285714 18.285714l-148.809143 0q-18.285714 0-18.285714-18.285714l0 0q0-18.285714 18.285714-18.285715Z" fill="#C3C3C3" p-id="29309"></path><path d="M347.211703 808.996571m18.285714 0l148.809143 0q18.285714 0 18.285714 18.285715l0 0q0 18.285714-18.285714 18.285714l-148.809143 0q-18.285714 0-18.285714-18.285714l0 0q0-18.285714 18.285714-18.285715Z" fill="#C3C3C3" p-id="29310"></path><path d="M314.077989 301.092571m18.285714 0l215.003428 0q18.285714 0 18.285715 18.285715l0 0q0 18.285714-18.285715 18.285714l-215.003428 0q-18.285714 0-18.285714-18.285714l0 0q0-18.285714 18.285714-18.285715Z" fill="#C3C3C3" p-id="29311"></path><path d="M314.077989 337.371429m18.285714 0l215.003428 0q18.285714 0 18.285715 18.285714l0 0q0 18.285714-18.285715 18.285714l-215.003428 0q-18.285714 0-18.285714-18.285714l0 0q0-18.285714 18.285714-18.285714Z" fill="#C3C3C3" p-id="29312"></path><path d="M314.077989 373.650286m18.285714 0l215.003428 0q18.285714 0 18.285715 18.285714l0 0q0 18.285714-18.285715 18.285714l-215.003428 0q-18.285714 0-18.285714-18.285714l0 0q0-18.285714 18.285714-18.285714Z" fill="#C3C3C3" p-id="29313"></path><path d="M314.077989 409.929143m18.285714 0l215.003428 0q18.285714 0 18.285715 18.285714l0 0q0 18.285714-18.285715 18.285714l-215.003428 0q-18.285714 0-18.285714-18.285714l0 0q0-18.285714 18.285714-18.285714Z" fill="#C3C3C3" p-id="29314"></path><path d="M314.077989 446.208m18.285714 0l215.003428 0q18.285714 0 18.285715 18.285714l0 0q0 18.285714-18.285715 18.285715l-215.003428 0q-18.285714 0-18.285714-18.285715l0 0q0-18.285714 18.285714-18.285714Z" fill="#C3C3C3" p-id="29315"></path><path d="M314.077989 482.486857m18.285714 0l215.003428 0q18.285714 0 18.285715 18.285714l0 0q0 18.285714-18.285715 18.285715l-215.003428 0q-18.285714 0-18.285714-18.285715l0 0q0-18.285714 18.285714-18.285714Z" fill="#C3C3C3" p-id="29316"></path><path d="M314.077989 518.765714m18.285714 0l215.003428 0q18.285714 0 18.285715 18.285715l0 0q0 18.285714-18.285715 18.285714l-215.003428 0q-18.285714 0-18.285714-18.285714l0 0q0-18.285714 18.285714-18.285715Z" fill="#C3C3C3" p-id="29317"></path><path d="M314.077989 555.044571m18.285714 0l215.003428 0q18.285714 0 18.285715 18.285715l0 0q0 18.285714-18.285715 18.285714l-215.003428 0q-18.285714 0-18.285714-18.285714l0 0q0-18.285714 18.285714-18.285715Z" fill="#C3C3C3" p-id="29318"></path><path d="M314.077989 591.323429m18.285714 0l215.003428 0q18.285714 0 18.285715 18.285714l0 0q0 18.285714-18.285715 18.285714l-215.003428 0q-18.285714 0-18.285714-18.285714l0 0q0-18.285714 18.285714-18.285714Z" fill="#C3C3C3" p-id="29319"></path><path d="M314.077989 627.602286m18.285714 0l215.003428 0q18.285714 0 18.285715 18.285714l0 0q0 18.285714-18.285715 18.285714l-215.003428 0q-18.285714 0-18.285714-18.285714l0 0q0-18.285714 18.285714-18.285714Z" fill="#C3C3C3" p-id="29320"></path><path d="M314.077989 663.881143m18.285714 0l215.003428 0q18.285714 0 18.285715 18.285714l0 0q0 18.285714-18.285715 18.285714l-215.003428 0q-18.285714 0-18.285714-18.285714l0 0q0-18.285714 18.285714-18.285714Z" fill="#C3C3C3" p-id="29321"></path><path d="M314.077989 700.16m18.285714 0l215.003428 0q18.285714 0 18.285715 18.285714l0 0q0 18.285714-18.285715 18.285715l-215.003428 0q-18.285714 0-18.285714-18.285715l0 0q0-18.285714 18.285714-18.285714Z" fill="#C3C3C3" p-id="29322"></path><path d="M314.077989 736.438857m18.285714 0l215.003428 0q18.285714 0 18.285715 18.285714l0 0q0 18.285714-18.285715 18.285715l-215.003428 0q-18.285714 0-18.285714-18.285715l0 0q0-18.285714 18.285714-18.285714Z" fill="#C3C3C3" p-id="29323"></path><path d="M314.077989 772.717714m18.285714 0l215.003428 0q18.285714 0 18.285715 18.285715l0 0q0 18.285714-18.285715 18.285714l-215.003428 0q-18.285714 0-18.285714-18.285714l0 0q0-18.285714 18.285714-18.285715Z" fill="#C3C3C3" p-id="29324"></path><path d="M492.839131 286.610286h39.716572v507.904H492.839131z" fill="#979797" p-id="29325"></path><path d="M327.316846 968.630857h99.328l7.789714 29.001143H334.923703zM459.997989 968.630857h99.291428l-6.326857 29.001143H453.049417z" fill="#970E00" p-id="29326"></path><path d="M295.207131 863.414857h290.157715l-19.017143 90.697143h-247.954286z" fill="#FFFFFF" p-id="29327"></path><path d="M433.264274 141.494857m18.285715 0l0 0q18.285714 0 18.285714 18.285714l0 0q0 18.285714-18.285714 18.285715l0 0q-18.285714 0-18.285715-18.285715l0 0q0-18.285714 18.285715-18.285714Z" fill="#E0ECFE" p-id="29328"></path><path d="M340.592274 174.116571m18.285715 0l162.048 0q18.285714 0 18.285714 18.285715l0 0q0 18.285714-18.285714 18.285714l-162.048 0q-18.285714 0-18.285715-18.285714l0 0q0-18.285714 18.285715-18.285715Z" fill="#970E00" p-id="29329"></path><path d="M413.405989 58.038857m18.285714 0l16.384 0q18.285714 0 18.285714 18.285714l0 0q0 18.285714-18.285714 18.285715l-16.384 0q-18.285714 0-18.285714-18.285715l0 0q0-18.285714 18.285714-18.285714Z" fill="#FFFFFF" p-id="29330"></path><path d="M372.884846 235.081143H512.660846l-13.238857 10.898286H386.928274z" fill="#D45017" p-id="29331"></path><path d="M490.205989 96.146286a30.610286 30.610286 0 0 1 30.281142 6.948571l0.292572 0.329143a10.605714 10.605714 0 0 1-4.096 17.846857 30.610286 30.610286 0 0 1-30.281143-6.948571l-0.329143-0.329143a10.605714 10.605714 0 0 1 4.132572-17.846857z" fill="#D3D8DF" p-id="29332"></path><path d="M476.455131 118.125714l37.193143-11.776a10.532571 10.532571 0 0 1-10.459428-2.377143 15.579429 15.579429 0 0 1 6.034285-26.185142l-37.156571 11.739428c3.657143-1.133714 7.68-0.219429 10.422857 2.413714a15.579429 15.579429 0 0 1-6.034286 26.185143z" fill="#D8D8D8" p-id="29333"></path><path d="M384.25856 96.146286a30.610286 30.610286 0 0 0-30.281143 6.948571l-0.329143 0.329143a10.605714 10.605714 0 0 0 4.132572 17.846857c10.605714 3.364571 22.198857 0.694857 30.281143-6.948571l0.329142-0.329143a10.605714 10.605714 0 0 0-4.132571-17.846857z" fill="#D3D8DF" p-id="29334"></path><path d="M396.692846 118.125714l-37.193143-11.776c3.657143 1.170286 7.68 0.256 10.459428-2.377143a15.579429 15.579429 0 0 0-6.034285-26.185142l37.156571 11.739428a10.532571 10.532571 0 0 0-10.422857 2.413714 15.579429 15.579429 0 0 0 6.034286 26.185143z" fill="#D8D8D8" p-id="29335"></path><path d="M353.831131 921.453714v-29.037714l13.238858-7.241143h18.907428l7.570286-7.241143h99.291428l7.570286 7.241143h18.907429l13.275428 7.241143v29.037714l-13.275428 7.204572v10.934857H367.10656v-10.934857l-13.238857-7.204572z" fill="#979797" p-id="29336"></path><path d="M506.077989 359.168m18.285714 0l16.384 0q18.285714 0 18.285714 18.285714l0 0q0 18.285714-18.285714 18.285715l-16.384 0q-18.285714 0-18.285714-18.285715l0 0q0-18.285714 18.285714-18.285714Z" fill="#979797" p-id="29337"></path><path d="M506.077989 431.689143m18.285714 0l16.384 0q18.285714 0 18.285714 18.285714l0 0q0 18.285714-18.285714 18.285714l-16.384 0q-18.285714 0-18.285714-18.285714l0 0q0-18.285714 18.285714-18.285714Z" fill="#979797" p-id="29338"></path><path d="M506.077989 504.246857m18.285714 0l16.384 0q18.285714 0 18.285714 18.285714l0 0q0 18.285714-18.285714 18.285715l-16.384 0q-18.285714 0-18.285714-18.285715l0 0q0-18.285714 18.285714-18.285714Z" fill="#979797" p-id="29339"></path><path d="M506.077989 576.804571m18.285714 0l16.384 0q18.285714 0 18.285714 18.285715l0 0q0 18.285714-18.285714 18.285714l-16.384 0q-18.285714 0-18.285714-18.285714l0 0q0-18.285714 18.285714-18.285715Z" fill="#979797" p-id="29340"></path><path d="M506.077989 649.362286m18.285714 0l16.384 0q18.285714 0 18.285714 18.285714l0 0q0 18.285714-18.285714 18.285714l-16.384 0q-18.285714 0-18.285714-18.285714l0 0q0-18.285714 18.285714-18.285714Z" fill="#979797" p-id="29341"></path><path d="M506.077989 721.92m18.285714 0l16.384 0q18.285714 0 18.285714 18.285714l0 0q0 18.285714-18.285714 18.285715l-16.384 0q-18.285714 0-18.285714-18.285715l0 0q0-18.285714 18.285714-18.285714Z" fill="#979797" p-id="29342"></path></svg>