<?xml version="1.0" standalone="no"?><!DOCTYPE svg PUBLIC "-//W3C//DTD SVG 1.1//EN" "http://www.w3.org/Graphics/SVG/1.1/DTD/svg11.dtd"><svg t="1709263421152" class="icon" viewBox="0 0 1024 1024" version="1.1" xmlns="http://www.w3.org/2000/svg" p-id="28915" xmlns:xlink="http://www.w3.org/1999/xlink" width="128" height="128"><path d="M562.678813 217.667291H563.890059v623.978789l-30.251886 181.388434H308.481053l-37.168274-181.394285V217.673143h1.082514a5.833874 5.833874 0 0 1-0.304274-3.651292C306.152185 71.340617 353.671636 0 414.643522 0 475.597853 0 525.036573 71.287954 562.95383 213.869714c0.351086 1.31072 0.228206 2.633143-0.269165 3.797577z" fill="#970E00" p-id="28916"></path><path d="M548.758265 246.690377v591.327817h-1.421897a5.833874 5.833874 0 0 1 0.36864 3.124663l-25.301578 162.429806a5.851429 5.851429 0 0 1-5.781211 4.950308H324.613442a5.851429 5.851429 0 0 1-5.746103-4.75136l-31.082789-162.435657a5.822171 5.822171 0 0 1 0.333532-3.31776h-1.667657V246.690377h-0.8192C316.269305 106.41408 359.38263 36.273006 414.971202 36.273006s100.492434 70.141074 134.711588 210.417371h-0.924525z" fill="#D45017" p-id="28917"></path><path d="M301.58807 235.80672h232.0384v602.919497l-28.0576 170.335086H335.140162l-33.552092-170.768092z" fill="#FFFFFF" p-id="28918"></path><path d="M415.082379 257.574034m4.540709 0l0 0q4.540709 0 4.540708 4.540709l0 556.8512q0 4.540709-4.540708 4.540708l0 0q-4.540709 0-4.540709-4.540708l0-556.8512q0-4.540709 4.540709-4.540709Z" fill="#C3C3C3" p-id="28919"></path><path d="M389.862722 257.574034m4.540708 0l0 0q4.540709 0 4.540709 4.540709l0 556.8512q0 4.540709-4.540709 4.540708l0 0q-4.540709 0-4.540708-4.540708l0-556.8512q0-4.540709 4.540708-4.540709Z" fill="#C3C3C3" p-id="28920"></path><path d="M364.637213 257.574034m4.540709 0l0 0q4.540709 0 4.540708 4.540709l0 556.8512q0 4.540709-4.540708 4.540708l0 0q-4.540709 0-4.540709-4.540708l0-556.8512q0-4.540709 4.540709-4.540709Z" fill="#C3C3C3" p-id="28921"></path><path d="M339.417556 286.59712m4.540709 0l0 0q4.540709 0 4.540708 4.540709l0 498.805028q0 4.540709-4.540708 4.540709l0 0q-4.540709 0-4.540709-4.540709l0-498.805028q0-4.540709 4.540709-4.540709Z" fill="#C3C3C3" p-id="28922"></path><path d="M440.302036 257.574034m4.540709 0l0 0q4.540709 0 4.540708 4.540709l0 556.8512q0 4.540709-4.540708 4.540708l0 0q-4.540709 0-4.540709-4.540708l0-556.8512q0-4.540709 4.540709-4.540709Z" fill="#C3C3C3" p-id="28923"></path><path d="M465.527545 257.574034m4.540708 0l0 0q4.540709 0 4.540709 4.540709l0 556.8512q0 4.540709-4.540709 4.540708l0 0q-4.540709 0-4.540708-4.540708l0-556.8512q0-4.540709 4.540708-4.540709Z" fill="#C3C3C3" p-id="28924"></path><path d="M346.983453 264.829806m2.925715 0l135.390354 0q2.925714 0 2.925714 2.925714l0 0q0 2.925714-2.925714 2.925714l-135.390354 0q-2.925714 0-2.925715-2.925714l0 0q0-2.925714 2.925715-2.925714Z" fill="#C3C3C3" p-id="28925"></path><path d="M346.983453 808.995109m2.925715 0l135.390354 0q2.925714 0 2.925714 2.925714l0 0q0 2.925714-2.925714 2.925714l-135.390354 0q-2.925714 0-2.925715-2.925714l0 0q0-2.925714 2.925715-2.925714Z" fill="#C3C3C3" p-id="28926"></path><path d="M321.763796 301.102811m2.925714 0l185.83552 0q2.925714 0 2.925715 2.925715l0 0q0 2.925714-2.925715 2.925714l-185.83552 0q-2.925714 0-2.925714-2.925714l0 0q0-2.925714 2.925714-2.925715Z" fill="#C3C3C3" p-id="28927"></path><path d="M321.763796 337.381669m2.925714 0l185.83552 0q2.925714 0 2.925715 2.925714l0 0q0 2.925714-2.925715 2.925714l-185.83552 0q-2.925714 0-2.925714-2.925714l0 0q0-2.925714 2.925714-2.925714Z" fill="#C3C3C3" p-id="28928"></path><path d="M321.763796 373.660526m2.925714 0l185.83552 0q2.925714 0 2.925715 2.925714l0 0q0 2.925714-2.925715 2.925714l-185.83552 0q-2.925714 0-2.925714-2.925714l0 0q0-2.925714 2.925714-2.925714Z" fill="#C3C3C3" p-id="28929"></path><path d="M321.763796 409.939383m2.925714 0l185.83552 0q2.925714 0 2.925715 2.925714l0 0q0 2.925714-2.925715 2.925714l-185.83552 0q-2.925714 0-2.925714-2.925714l0 0q0-2.925714 2.925714-2.925714Z" fill="#C3C3C3" p-id="28930"></path><path d="M321.763796 446.21824m2.925714 0l185.83552 0q2.925714 0 2.925715 2.925714l0 0q0 2.925714-2.925715 2.925715l-185.83552 0q-2.925714 0-2.925714-2.925715l0 0q0-2.925714 2.925714-2.925714Z" fill="#C3C3C3" p-id="28931"></path><path d="M321.763796 482.491246m2.925714 0l185.83552 0q2.925714 0 2.925715 2.925714l0 0q0 2.925714-2.925715 2.925714l-185.83552 0q-2.925714 0-2.925714-2.925714l0 0q0-2.925714 2.925714-2.925714Z" fill="#C3C3C3" p-id="28932"></path><path d="M321.763796 518.770103m2.925714 0l185.83552 0q2.925714 0 2.925715 2.925714l0 0q0 2.925714-2.925715 2.925714l-185.83552 0q-2.925714 0-2.925714-2.925714l0 0q0-2.925714 2.925714-2.925714Z" fill="#C3C3C3" p-id="28933"></path><path d="M321.763796 555.04896m2.925714 0l185.83552 0q2.925714 0 2.925715 2.925714l0 0q0 2.925714-2.925715 2.925715l-185.83552 0q-2.925714 0-2.925714-2.925715l0 0q0-2.925714 2.925714-2.925714Z" fill="#C3C3C3" p-id="28934"></path><path d="M321.763796 591.327817m2.925714 0l185.83552 0q2.925714 0 2.925715 2.925714l0 0q0 2.925714-2.925715 2.925715l-185.83552 0q-2.925714 0-2.925714-2.925715l0 0q0-2.925714 2.925714-2.925714Z" fill="#C3C3C3" p-id="28935"></path><path d="M321.763796 627.606674m2.925714 0l185.83552 0q2.925714 0 2.925715 2.925715l0 0q0 2.925714-2.925715 2.925714l-185.83552 0q-2.925714 0-2.925714-2.925714l0 0q0-2.925714 2.925714-2.925715Z" fill="#C3C3C3" p-id="28936"></path><path d="M321.763796 663.885531m2.925714 0l185.83552 0q2.925714 0 2.925715 2.925715l0 0q0 2.925714-2.925715 2.925714l-185.83552 0q-2.925714 0-2.925714-2.925714l0 0q0-2.925714 2.925714-2.925715Z" fill="#C3C3C3" p-id="28937"></path><path d="M321.763796 700.158537m2.925714 0l185.83552 0q2.925714 0 2.925715 2.925714l0 0q0 2.925714-2.925715 2.925715l-185.83552 0q-2.925714 0-2.925714-2.925715l0 0q0-2.925714 2.925714-2.925714Z" fill="#C3C3C3" p-id="28938"></path><path d="M321.763796 736.437394m2.925714 0l185.83552 0q2.925714 0 2.925715 2.925715l0 0q0 2.925714-2.925715 2.925714l-185.83552 0q-2.925714 0-2.925714-2.925714l0 0q0-2.925714 2.925714-2.925715Z" fill="#C3C3C3" p-id="28939"></path><path d="M321.763796 772.716251m2.925714 0l185.83552 0q2.925714 0 2.925715 2.925715l0 0q0 2.925714-2.925715 2.925714l-185.83552 0q-2.925714 0-2.925714-2.925714l0 0q0-2.925714 2.925714-2.925715Z" fill="#C3C3C3" p-id="28940"></path><path d="M457.961648 286.59712h30.263588v507.886446h-30.263588z" fill="#979797" p-id="28941"></path><path d="M331.851659 968.616229h75.664823l5.927497 29.023085H337.627019zM432.90583 968.616229h75.664823l-4.809874 29.023085h-76.127086z" fill="#970E00" p-id="28942"></path><path d="M307.36343 863.413394h221.096229l-14.49984 90.691292H325.01719z" fill="#FFFFFF" p-id="28943"></path><path d="M412.560413 141.481691m5.043932 0l0 0q5.043931 0 5.043931 5.043932l0 26.190994q0 5.043931-5.043931 5.043932l0 0q-5.043931 0-5.043932-5.043932l0-26.190994q0-5.043931 5.043932-5.043932Z" fill="#E0ECFE" p-id="28944"></path><path d="M341.939522 174.132663m5.851428 0l139.626789 0q5.851429 0 5.851429 5.851428l0 24.576q0 5.851429-5.851429 5.851429l-139.626789 0q-5.851429 0-5.851428-5.851429l0-24.576q0-5.851429 5.851428-5.851428Z" fill="#970E00" p-id="28945"></path><path d="M397.428619 58.046171m14.511543 0l11.334217 0q14.511543 0 14.511543 14.511543l0 0q0 14.511543-14.511543 14.511543l-11.334217 0q-14.511543 0-14.511543-14.511543l0 0q0-14.511543 14.511543-14.511543Z" fill="#FFFFFF" p-id="28946"></path><path d="M366.544779 235.081143h106.548663l-10.087863 10.883657H377.252893z" fill="#D45017" p-id="28947"></path><path d="M450.021259 98.59072l14.962103-6.214217a5.851429 5.851429 0 0 1 6.805211 1.743726l12.545463 15.629165a5.851429 5.851429 0 0 1-2.317166 9.069715l-14.956251 6.202514a5.851429 5.851429 0 0 1-6.805211-1.737874l-12.551315-15.623315a5.851429 5.851429 0 0 1 2.323017-9.069714z" fill="#D3D8DF" p-id="28948"></path><path d="M442.806448 103.2192a0.099474 0.099474 0 0 0-0.04096 0.152137 2.440046 2.440046 0 0 0 2.843794 0.731429l27.501714-11.421989a0.099474 0.099474 0 0 0 0.04096-0.152137 2.440046 2.440046 0 0 0-2.837943-0.731429l-27.507565 11.421989z" fill="#D8D8D8" p-id="28949"></path><path d="M381.13239 98.59072l-14.956251-6.214217a5.851429 5.851429 0 0 0-6.811063 1.743726l-12.545463 15.629165a5.851429 5.851429 0 0 0 2.317166 9.069715l14.956251 6.202514a5.851429 5.851429 0 0 0 6.805212-1.737874l12.551314-15.623315a5.851429 5.851429 0 0 0-2.317166-9.069714z" fill="#D3D8DF" p-id="28950"></path><path d="M387.35831 103.2192a0.099474 0.099474 0 0 1 0.04096 0.152137 2.440046 2.440046 0 0 1-2.837942 0.731429l-27.507566-11.421989a0.099474 0.099474 0 0 1-0.04096-0.152137 2.440046 2.440046 0 0 1 2.837943-0.731429l27.507565 11.421989z" fill="#D8D8D8" p-id="28951"></path><path d="M362.115248 928.668526l-10.087863-7.214812v-29.023085l10.087863-7.255772h14.412068l5.769509-7.255771h75.658971l5.769509 7.255771h14.412068l10.087863 7.255772v29.023085l-10.087863 7.214812v10.924617H362.115248v-10.924617z" fill="#979797" p-id="28952"></path><path d="M468.04951 359.148983m5.441829 0l29.473646 0q5.441829 0 5.441828 5.441828l0 0q0 5.441829-5.441828 5.441829l-29.473646 0q-5.441829 0-5.441829-5.441829l0 0q0-5.441829 5.441829-5.441828Z" fill="#979797" p-id="28953"></path><path d="M468.04951 431.706697m5.441829 0l29.473646 0q5.441829 0 5.441828 5.441829l0 0q0 5.441829-5.441828 5.441828l-29.473646 0q-5.441829 0-5.441829-5.441828l0 0q0-5.441829 5.441829-5.441829Z" fill="#979797" p-id="28954"></path><path d="M468.04951 504.25856m5.441829 0l29.473646 0q5.441829 0 5.441828 5.441829l0 0q0 5.441829-5.441828 5.441828l-29.473646 0q-5.441829 0-5.441829-5.441828l0 0q0-5.441829 5.441829-5.441829Z" fill="#979797" p-id="28955"></path><path d="M468.04951 576.816274m5.441829 0l29.473646 0q5.441829 0 5.441828 5.441829l0 0q0 5.441829-5.441828 5.441828l-29.473646 0q-5.441829 0-5.441829-5.441828l0 0q0-5.441829 5.441829-5.441829Z" fill="#979797" p-id="28956"></path><path d="M468.04951 649.373989m5.441829 0l29.473646 0q5.441829 0 5.441828 5.441828l0 0q0 5.441829-5.441828 5.441829l-29.473646 0q-5.441829 0-5.441829-5.441829l0 0q0-5.441829 5.441829-5.441828Z" fill="#979797" p-id="28957"></path><path d="M468.04951 721.925851m5.441829 0l29.473646 0q5.441829 0 5.441828 5.441829l0 0q0 5.441829-5.441828 5.441829l-29.473646 0q-5.441829 0-5.441829-5.441829l0 0q0-5.441829 5.441829-5.441829Z" fill="#979797" p-id="28958"></path></svg>