<?xml version="1.0" standalone="no"?><!DOCTYPE svg PUBLIC "-//W3C//DTD SVG 1.1//EN" "http://www.w3.org/Graphics/SVG/1.1/DTD/svg11.dtd"><svg t="1709263296043" class="icon" viewBox="0 0 1024 1024" version="1.1" xmlns="http://www.w3.org/2000/svg" p-id="19242" xmlns:xlink="http://www.w3.org/1999/xlink" width="128" height="128"><path d="M848.437166 812.337929L344.762747 588.08763a653.832485 653.832485 0 0 1-256.045134-203.751976 49.553499 49.553499 0 0 1 33.236818-78.723984l40.011705-5.081258A481.129899 481.129899 0 0 1 418.397924 338.161724l535.099787 238.241774a28.723743 28.723743 0 0 1 14.297042 38.012493L886.271561 797.520079a28.723743 28.723743 0 0 1-37.834395 14.81785z" fill="#3B89E1" p-id="19243"></path><path d="M356.988816 324.365623m21.937222 9.767081l446.442877 198.769175q21.937223 9.767081 12.170142 31.704303l-75.459048 169.483797q-9.767081 21.937223-31.704303 12.170142l-446.442877-198.769175q-21.937223-9.767081-12.170142-31.704304l75.459048-169.483797q9.767081-21.937223 31.704303-12.170141Z" fill="#215187" p-id="19244"></path><path d="M334.255271 485.393457l127.701745 56.85648-25.692051 57.705291-127.701745-56.856479z" fill="#FFFFFF" p-id="19245"></path><path d="M479.064628 549.866737l127.701744 56.856479-25.692051 57.705292-127.701744-56.85648z" fill="#67AFF8" p-id="19246"></path><path d="M625.137316 614.902487l127.701744 56.85648-25.692051 57.705292-127.701744-56.85648z" fill="#FFFFFF" p-id="19247"></path><path d="M393.1203 354.880419l127.701744 56.856479-25.692051 57.705292-127.701744-56.85648z" fill="#FFFFFF" p-id="19248"></path><path d="M537.929656 419.353698l127.701745 56.85648-25.692051 57.705291-127.701745-56.85648z" fill="#67AFF8" p-id="19249"></path><path d="M684.002344 484.389449l127.701745 56.856479-25.692052 57.705292-127.701744-56.85648z" fill="#FFFFFF" p-id="19250"></path><path d="M364.000689 420.284136l127.701744 56.856479-25.692051 57.705292-127.701744-56.85648z" fill="#67AFF8" p-id="19251"></path><path d="M508.810045 484.757415l127.701745 56.85648-25.692051 57.705291-127.701745-56.85648z" fill="#FFFFFF" p-id="19252"></path><path d="M654.882733 549.793166l127.701745 56.856479-25.692051 57.705292-127.701745-56.85648z" fill="#67AFF8" p-id="19253"></path><path d="M279.647258 355.527198l29.425093 13.100895-42.13262 94.631415-29.425093-13.100896z" fill="#FFFFFF" p-id="19254"></path><path d="M828.795301 623.06119l37.50515 16.698369-28.088414 63.087609-37.505149-16.698368z" fill="#FFFFFF" p-id="19255"></path><path d="M899.566675 583.140099l37.50515 16.698368-28.088413 63.08761-37.50515-16.698369z" fill="#FFFFFF" p-id="19256"></path><path d="M845.79207 703.91984l37.50515 16.698369-28.088414 63.087609-37.505149-16.698368z" fill="#FFFFFF" p-id="19257"></path></svg>